<svg xmlns="http://www.w3.org/2000/svg" width="56" height="56" viewBox="0 0 56 56"><g transform="translate(0 -996.362)"><circle cx="28" cy="1024.362" r="28" fill="#ef4c45" fill-rule="evenodd"/><path fill="#fff" d="M 1,3 C 0.448,3 0,3.4859844 0,4.0839844 L 0,27.916016 C 0,28.515016 0.447,29 1,29 l 30,0 c 0.553,0 1,-0.484984 1,-1.083984 L 32,4.0839844 C 32,3.4849844 31.553,3 31,3 L 1,3 Z m 22,1 c 0.553,0 1,0.447 1,1 0,0.553 -0.447,1 -1,1 -0.553,0 -1,-0.447 -1,-1 0,-0.553 0.447,-1 1,-1 z m 3,0 c 0.553,0 1,0.447 1,1 0,0.553 -0.447,1 -1,1 -0.553,0 -1,-0.447 -1,-1 0,-0.553 0.447,-1 1,-1 z m 3,0 c 0.553,0 1,0.447 1,1 0,0.553 -0.447,1 -1,1 C 28.447,6 28,5.553 28,5 28,4.447 28.447,4 29,4 Z M 1.9375,7 30.0625,7 c 0.518,0 0.939453,0.392 0.939453,0.875 l 0,19.25 C 31.001953,27.608 30.5805,28 30.0625,28 L 1.9375,28 C 1.4195,28 1,27.608 1,27.125 L 1,7.875 C 1,7.392 1.4195,7 1.9375,7 Z m 0.09375,1 0,9 8,0 0,-9 -8,0 z m 10,0 0,9 8,0 0,-9 -8,0 z m 10,0 0,9 8,0 0,-9 -8,0 z m -20,10 0,9 8,0 0,-9 -8,0 z m 10,0 0,9 8,0 0,-9 -8,0 z m 10,0 0,9 8,0 0,-9 -8,0 z" transform="translate(12 1008.362)"/></g></svg>